<?xml version="1.0" encoding="UTF-8"?>
<svg version="1.1" xmlns="http://www.w3.org/2000/svg" width="1024" height="1024">
<path d="M0 0 C337.92 0 675.84 0 1024 0 C1024 337.92 1024 675.84 1024 1024 C686.08 1024 348.16 1024 0 1024 C0 686.08 0 348.16 0 0 Z " fill="#FDFEFE" transform="translate(0,0)"/>
<path d="M0 0 C337.92 0 675.84 0 1024 0 C1024 337.92 1024 675.84 1024 1024 C686.08 1024 348.16 1024 0 1024 C0 686.08 0 348.16 0 0 Z M448 101 C446.9181543 101.15484863 445.83630859 101.30969727 444.72167969 101.46923828 C407.28765775 106.89506843 370.08635026 118.65990467 336 135 C335.23365234 135.36577148 334.46730469 135.73154297 333.67773438 136.10839844 C329.71420616 138.01497366 325.78927528 139.98559264 321.88916016 142.01855469 C319.90536212 143.04916571 317.91209795 144.05985344 315.91796875 145.0703125 C287.27550475 159.73557317 260.31506076 178.96766774 236.58203125 200.6640625 C235.17553817 201.93650254 233.76291738 203.2027703 232.3215332 204.43554688 C226.65540196 209.29160918 221.33805471 214.47578208 216.06420898 219.75048828 C214.57358385 221.23893237 213.07512983 222.71917277 211.57617188 224.19921875 C205.26547113 230.47355689 199.55430637 237.03649724 194 244 C193.06514091 245.10176066 192.1237989 246.19810568 191.171875 247.28515625 C183.4958509 256.0878226 176.68124221 265.42706966 170 275 C169.33701904 275.94697754 169.33701904 275.94697754 168.66064453 276.91308594 C144.27824231 311.9681445 124.53951077 351.84695941 113 393 C112.53231201 394.65781494 112.53231201 394.65781494 112.05517578 396.34912109 C106.74331168 415.42250195 102.84157002 434.39746297 100 454 C99.87399414 454.84111328 99.74798828 455.68222656 99.61816406 456.54882812 C96.98788635 474.26612905 96.8133046 492.17245075 96.81469727 510.05004883 C96.81251438 513.16696931 96.7942777 516.28353233 96.77539062 519.40039062 C96.72368681 537.72975245 97.64228709 556.09540094 100.75 574.1875 C100.91701416 575.19103516 101.08402832 576.19457031 101.25610352 577.22851562 C104.32964656 595.22616974 107.58164914 613.38647709 113.27099609 630.76757812 C114.1124658 633.34440297 114.92382653 635.93013826 115.73828125 638.515625 C132.33392255 690.44611713 158.91266069 738.33130665 194 780 C194.40497711 780.48649017 194.80995422 780.97298035 195.22720337 781.47421265 C202.52298398 790.2272722 210.17853737 798.49652118 218.26391602 806.5246582 C220.07221608 808.32215805 221.86945977 810.13022316 223.66601562 811.93945312 C230.47160169 818.75276667 237.43457445 825.03024979 245 831 C246.02793482 831.8629301 247.0513472 832.73133544 248.06640625 833.609375 C283.68363153 864.15435067 326.60313738 888.18087016 370.93359375 903.28222656 C372.97706709 903.99203417 375.00465508 904.73565765 377.03125 905.4921875 C388.80845898 909.8572066 400.8102407 913.00750138 413 916 C413.89315918 916.22574707 414.78631836 916.45149414 415.70654297 916.68408203 C431.62884733 920.69639644 447.69996739 923.09375943 464 925 C464.72028381 925.08827057 465.44056763 925.17654114 466.18267822 925.26748657 C480.34345077 926.98150357 494.36961868 927.35881447 508.625 927.3125 C510.28712021 927.31076279 510.28712021 927.31076279 511.9828186 927.30899048 C526.09481294 927.27996102 540.1297642 926.96933981 554.1875 925.6875 C555.47672363 925.56995361 556.76594727 925.45240723 558.09423828 925.33129883 C566.00686452 924.51392193 573.75616563 923.19512666 581.55078125 921.64575195 C584.32030171 921.12725099 587.00865301 920.7341486 589.8125 920.5 C593.94749112 920.10508512 597.751085 919.03049987 601.734375 917.87890625 C604.935092 917.01746926 608.13777119 916.30260015 611.37890625 915.61499023 C620.05911715 913.77264852 628.44248171 911.45895517 636.86816406 908.68847656 C639.1833257 907.94079495 641.50776599 907.22952985 643.8359375 906.5234375 C651.39814234 904.21905553 658.78233677 901.91660465 665.91015625 898.45703125 C669.2768981 896.86942732 672.69029249 895.43682334 676.12451172 894.00268555 C714.1001842 878.07083894 748.92137297 856.39012029 780.13427734 829.5625 C781.53387482 828.39036917 782.95458225 827.24336899 784.38525391 826.109375 C791.52502547 820.42344994 798.01956651 814.28988705 804.44384766 807.81689453 C806.12314428 806.12686758 807.81288969 804.44782236 809.50390625 802.76953125 C816.11784257 796.16369558 822.17290493 789.32030677 828 782 C829.46621308 780.27457667 830.9543826 778.57125142 832.44775391 776.86938477 C859.03618375 746.53764646 879.05488642 710.8866524 895 674 C895.46792969 672.94167969 895.93585937 671.88335938 896.41796875 670.79296875 C900.14701723 662.16426435 903.14528667 653.26407528 906.18310547 644.37451172 C906.89045579 642.31841809 907.61420507 640.26953554 908.34765625 638.22265625 C920.69823701 602.91826303 926.96818821 564.06877591 927.23828125 526.7109375 C927.24798447 525.58055557 927.25768768 524.45017365 927.26768494 523.28553772 C927.29248176 519.64865511 927.30519825 516.01195858 927.3125 512.375 C927.31642761 510.50800949 927.31642761 510.50800949 927.32043457 508.603302 C927.32504563 488.10631011 926.19746285 468.23561286 923 448 C922.83983398 446.91686523 922.67966797 445.83373047 922.51464844 444.71777344 C911.4953979 370.43726294 877.08924527 296.98743538 827 241 C826.175 240.07574219 825.35 239.15148437 824.5 238.19921875 C823.08180085 236.62051395 821.65955458 235.0454192 820.23046875 233.4765625 C818.97257252 232.07987912 817.72179869 230.67644813 816.49633789 229.2512207 C811.90335176 223.91660026 807.05168805 218.90142634 802.0625 213.9375 C800.92264648 212.7918457 800.92264648 212.7918457 799.75976562 211.62304688 C795.00362556 206.87503002 790.12351733 202.34814251 785 198 C784.36892334 197.46221924 783.73784668 196.92443848 783.08764648 196.37036133 C749.55069454 167.99425281 712.31936473 145.40027838 672 128 C671.28424805 127.68579102 670.56849609 127.37158203 669.83105469 127.04785156 C643.57822227 115.5476627 615.18421649 107.95667963 587 103 C586.04834961 102.82871582 585.09669922 102.65743164 584.11621094 102.48095703 C581.01757731 101.92923448 577.91597424 101.39876748 574.8125 100.875 C573.90685303 100.71620361 573.00120605 100.55740723 572.06811523 100.39379883 C551.95964896 97.13189983 531.51788392 96.5914718 511.1875 96.625 C510.04545105 96.62487915 508.9034021 96.6247583 507.72674561 96.62463379 C487.56458944 96.6547815 467.92606778 97.98680277 448 101 Z " fill="#FEFEFE" transform="translate(0,0)"/>
<path d="M0 0 C1.11036621 -0.00367584 2.22073242 -0.00735168 3.36474609 -0.01113892 C24.58653376 -0.04780257 45.71405417 1.0650927 66.6875 4.4375 C67.33950378 4.54131989 67.99150757 4.64513977 68.66326904 4.75210571 C95.23064038 9.02830367 120.90843347 16.15369388 146.1875 25.3125 C147.11272461 25.64717285 148.03794922 25.9818457 148.99121094 26.32666016 C190.43821128 41.57126162 229.53331183 64.66125941 263.43603516 92.86523438 C265.84857287 94.85875592 268.30341065 96.79851071 270.75 98.75 C285.92386427 111.20209489 300.55638728 125.28342769 313.1875 140.3125 C314.02925781 141.26511719 314.87101563 142.21773437 315.73828125 143.19921875 C367.69272614 202.18263878 401.75249432 277.43932421 412.73339844 355.13330078 C413.0247091 357.17278863 413.32891961 359.2104996 413.64941406 361.24560547 C416.41308535 379.01249009 416.47832904 396.74379553 416.5 414.6875 C416.50358521 415.8856131 416.50717041 417.0837262 416.51086426 418.31814575 C416.56106084 449.54228985 413.05576076 479.8619788 406.1875 510.3125 C406.00493652 511.14394531 405.82237305 511.97539063 405.63427734 512.83203125 C402.04481452 529.03267231 396.63185654 544.66112647 391.1875 560.3125 C390.72827148 561.63797852 390.72827148 561.63797852 390.25976562 562.99023438 C387.44101364 571.05063655 384.14995558 578.72596292 380.21875 586.3125 C378.64573171 589.36377645 377.16997038 592.45147404 375.71875 595.5625 C366.93989016 614.37044488 357.06878914 632.28281276 345.1875 649.3125 C344.79385254 649.88484375 344.40020508 650.4571875 343.99462891 651.046875 C337.22480115 660.88181496 329.82152435 670.13805117 322.1875 679.3125 C321.45781006 680.19301025 321.45781006 680.19301025 320.71337891 681.09130859 C306.23259374 698.53532391 290.7742978 716.27539266 272.828125 730.23046875 C270.25983291 732.25546828 267.81498888 734.3733351 265.36328125 736.53564453 C229.22719772 768.27652464 184.99481703 790.72951629 140.1875 807.3125 C138.36025391 808.00279297 138.36025391 808.00279297 136.49609375 808.70703125 C120.7134931 814.54434758 104.40121168 818.73951174 87.85546875 821.76953125 C85.22817807 822.18388662 85.22817807 822.18388662 83.1875 823.3125 C81.21393625 823.63993893 79.23307425 823.92370716 77.25 824.1875 C73.1359857 824.74603892 69.03884378 825.32368164 64.94921875 826.0390625 C25.82972276 832.83925779 -16.55344997 833.19343599 -55.8125 827.3125 C-56.80427246 827.17328125 -57.79604492 827.0340625 -58.81787109 826.890625 C-84.81072979 823.20478389 -110.10606261 817.16096032 -134.82910156 808.36181641 C-137.54985447 807.40487729 -140.27984406 806.49435057 -143.0234375 805.60546875 C-190.8363156 789.93278235 -235.15786382 761.31539309 -272.8125 728.3125 C-273.69035156 727.54679688 -274.56820312 726.78109375 -275.47265625 725.9921875 C-282.17801482 719.99113278 -288.57801227 713.67415974 -294.96343994 707.33679199 C-295.97066232 706.33761139 -296.97936031 705.33991559 -297.98968506 704.34387207 C-304.73479008 697.68403413 -310.89387782 690.72592012 -316.8125 683.3125 C-317.74741198 682.21078422 -318.6887511 681.11443811 -319.640625 680.02734375 C-327.3172168 671.22402638 -334.12574311 661.88229946 -340.8125 652.3125 C-341.24916992 651.69181641 -341.68583984 651.07113281 -342.13574219 650.43164062 C-373.3372721 605.84388734 -394.26221153 554.31348381 -405.8125 501.3125 C-406.12743408 499.87052246 -406.12743408 499.87052246 -406.44873047 498.39941406 C-409.49334941 484.17063793 -411.40151878 469.79004338 -412.8125 455.3125 C-412.91111328 454.31677979 -413.00972656 453.32105957 -413.11132812 452.29516602 C-414.01929559 441.66277037 -413.96384859 431.02881934 -413.94287109 420.36499023 C-413.93753958 417.14887718 -413.94282929 413.93290554 -413.94921875 410.71679688 C-413.95753554 392.31679187 -413.2782948 374.22644662 -410.6875 356 C-410.5802359 355.23480042 -410.4729718 354.46960083 -410.36245728 353.68121338 C-406.8539795 328.94110503 -400.62277967 305.04003769 -392.8125 281.3125 C-392.55645996 280.52133789 -392.30041992 279.73017578 -392.03662109 278.91503906 C-387.83777606 266.01632526 -382.37257769 253.67329796 -376.8125 241.3125 C-376.44785645 240.48991699 -376.08321289 239.66733398 -375.70751953 238.81982422 C-369.43494166 224.71602791 -361.77881095 211.51955616 -353.8125 198.3125 C-353.35198242 197.54244629 -352.89146484 196.77239258 -352.41699219 195.97900391 C-342.45768752 179.36866243 -330.92992096 164.01549027 -318.43115234 149.23974609 C-316.99162333 147.52577294 -315.57901651 145.79445593 -314.17578125 144.05078125 C-307.22701611 135.53433896 -299.49578157 127.78319095 -291.75 120 C-291.19509888 119.43983185 -290.64019775 118.8796637 -290.06848145 118.30252075 C-283.76466798 111.95251656 -277.38003068 105.94991016 -270.36694336 100.37280273 C-267.91010448 98.39122352 -265.56442468 96.33073168 -263.2265625 94.2109375 C-258.73955958 90.18240222 -254.02618542 86.53182985 -249.1875 82.9375 C-248.31287109 82.28612061 -247.43824219 81.63474121 -246.53710938 80.96362305 C-190.66732166 39.62835856 -125.60877277 12.98289208 -56.8125 3.3125 C-55.72018066 3.15023926 -54.62786133 2.98797852 -53.50244141 2.82080078 C-35.69590516 0.26419482 -17.95875408 0.02837408 0 0 Z M-46.8125 15.3125 C-47.75029297 15.41433594 -48.68808594 15.51617187 -49.65429688 15.62109375 C-72.93492369 18.25295805 -95.46493986 23.35415596 -117.8125 30.3125 C-119.80338351 30.92188122 -121.79426892 31.53125624 -123.78515625 32.140625 C-125.71142343 32.73801874 -127.63722426 33.33691876 -129.5625 33.9375 C-130.4186792 34.20224121 -131.2748584 34.46698242 -132.15698242 34.73974609 C-138.88178661 36.87711226 -145.32969944 39.53475363 -151.8125 42.3125 C-152.76125 42.71017578 -153.71 43.10785156 -154.6875 43.51757812 C-205.37070494 64.79758129 -249.35397631 95.91761938 -288.1875 134.5625 C-289.16855713 135.53654785 -289.16855713 135.53654785 -290.16943359 136.53027344 C-294.58552996 140.96099637 -298.73716109 145.56827934 -302.8125 150.3125 C-303.66972656 151.28832031 -304.52695312 152.26414063 -305.41015625 153.26953125 C-359.23029405 215.61900943 -392.98901787 295.26795242 -399.8125 377.3125 C-399.9067627 378.41609863 -400.00102539 379.51969727 -400.09814453 380.65673828 C-400.95642889 391.86970904 -401.05467417 403.07127379 -401.0625 414.3125 C-401.06350708 415.32317535 -401.06451416 416.33385071 -401.06555176 417.37515259 C-401.05382761 434.87085282 -400.11878233 451.95380114 -397.8125 469.3125 C-397.6573291 470.51970703 -397.5021582 471.72691406 -397.34228516 472.97070312 C-395.59778328 486.33632603 -393.39691018 499.32089305 -389.8125 512.3125 C-389.22768707 514.57287075 -388.64305787 516.83328904 -388.05859375 519.09375 C-385.87577968 527.36950345 -383.30456941 535.51023443 -380.65844727 543.64794922 C-379.87207883 546.07150293 -379.0969448 548.49846944 -378.32226562 550.92578125 C-375.6173626 559.32328634 -372.65600114 567.35655548 -368.8125 575.3125 C-368.04314071 577.03755162 -367.28016306 578.76546287 -366.5234375 580.49609375 C-342.88649485 633.88949435 -305.22343316 687.11197213 -258.8125 723.3125 C-256.9761792 724.8714879 -255.14302968 726.43421635 -253.3125 728 C-230.38464849 747.10159945 -204.89065277 763.32687602 -178.00537109 776.25732422 C-175.55790248 777.4350084 -173.11716337 778.62615918 -170.67578125 779.81640625 C-147.40202643 791.10224822 -123.45293767 799.90497569 -98.22265625 805.73706055 C-96.53779853 806.13933057 -94.85834023 806.56459738 -93.18359375 807.00708008 C-85.06538322 809.14144203 -76.89996926 810.62870413 -68.625 811.99243164 C-66.34225795 812.37007699 -64.06179328 812.75971466 -61.78125 813.15039062 C-41.7833335 816.52180678 -22.15093216 817.69233738 -1.875 817.625 C-0.70486359 817.62284485 0.46527283 817.6206897 1.67086792 817.61846924 C19.36553902 817.56623472 36.67129946 817.00565155 54.1875 814.3125 C55.61646186 814.10057059 57.04550274 813.88917359 58.47460938 813.67822266 C100.7080795 807.38621606 139.48996112 795.41641606 178.1875 777.3125 C178.94643555 776.95784668 179.70537109 776.60319336 180.48730469 776.23779297 C213.54664899 760.64361305 243.83161209 739.01763554 270.80078125 714.48046875 C272.39248746 713.03464724 273.99413226 711.59969249 275.60546875 710.17578125 C284.39527093 702.39212494 292.89724923 694.22605067 300.50390625 685.26953125 C301.69217118 683.88827666 302.91168193 682.53360851 304.15234375 681.19921875 C311.43567125 673.36272714 317.80322001 664.88145846 324.1875 656.3125 C324.72955078 655.58998047 325.27160156 654.86746094 325.83007812 654.12304688 C360.69037335 607.51680381 384.33090566 553.25119217 395.60107422 496.23632812 C396.13926619 493.55298629 396.70664728 490.87800782 397.28515625 488.203125 C408.15448344 436.83932919 405.73463316 381.67862516 394.87792969 330.58056641 C394.30174029 327.85324278 393.75427061 325.12369491 393.2265625 322.38671875 C387.53754482 293.71029001 377.1366 264.28881672 363.34960938 238.51904297 C361.962704 235.88567095 360.63048619 233.22715898 359.296875 230.56640625 C346.36873989 204.94692965 330.78815977 181.18995994 312.1875 159.3125 C311.74229004 158.78382324 311.29708008 158.25514648 310.83837891 157.71044922 C298.62103733 143.2041637 285.97547268 128.60488804 271.5 116.2890625 C269.66566646 114.72120309 267.86038617 113.13235345 266.0625 111.5234375 C233.89266166 82.91069088 196.12422826 59.41139644 156.1875 43.3125 C155.47513184 43.02270264 154.76276367 42.73290527 154.02880859 42.43432617 C105.46345561 22.80204357 55.13760733 13.06914172 2.8125 13.125 C1.36783356 13.12540787 1.36783356 13.12540787 -0.10601807 13.12582397 C-15.75359385 13.14606391 -31.2451307 13.59807864 -46.8125 15.3125 Z " fill="#CACBCC" transform="translate(510.8125,96.6875)"/>
<path d="M0 0 C7.57474348 4.37104204 12.59316424 9.92484016 15.28125 18.31640625 C16.00479782 24.37815044 15.96179086 30.39333331 15.92289734 36.4907074 C15.92938001 38.34354227 15.93803686 40.19637059 15.94867164 42.04918629 C15.97143917 47.12481074 15.96311776 52.19997558 15.94953239 57.27561533 C15.94026827 62.75563071 15.95977472 68.23555549 15.97550964 73.71554565 C16.00158781 84.44487484 16.00051137 95.1740364 15.98947146 105.90338521 C15.98091051 114.62446477 15.98174583 123.34549586 15.98926735 132.066576 C15.99032224 133.30818235 15.99137713 134.5497887 15.99246398 135.82901948 C15.99463492 138.35139411 15.9968217 140.87376872 15.99902413 143.39614332 C16.0129341 160.32902789 16.01759197 177.26189253 16.00277996 194.19477749 C16.00220119 194.85654418 16.00162242 195.51831088 16.00102612 196.20013111 C15.99626166 201.57375756 15.99120357 206.94738374 15.98612839 212.32100991 C15.96653608 233.28154106 15.97574061 254.24187956 16.00854492 275.20239258 C16.0453448 298.76572522 16.06232813 322.32897248 16.04913265 345.89233929 C16.04779156 348.40569975 16.04648258 350.91906023 16.04520607 353.43242073 C16.0445754 354.66900853 16.04394474 355.90559633 16.04329496 357.17965649 C16.04026839 365.88849192 16.05152509 374.59724158 16.06845665 383.30605888 C16.088785 393.92188245 16.08790653 404.53744917 16.05982425 415.15325933 C16.04605513 420.56838409 16.04186038 425.98306053 16.06377411 431.39816856 C16.08358174 436.35839564 16.07553762 441.31778 16.04557977 446.27794898 C16.0395872 448.06921572 16.04364377 449.86055123 16.058943 451.65176266 C16.14651706 462.71383587 15.32283196 471.65459809 7.53981513 480.23661608 C1.53851174 486.0325048 -5.27564876 488.54135509 -13.53125 488.94140625 C-22.3289702 488.66558583 -30.09491176 485.511746 -36.21875 479.06640625 C-43.26090869 469.09057183 -43.28910663 459.0762321 -43.21995544 447.31846619 C-43.22385155 445.48483412 -43.22949446 443.65120509 -43.23672634 441.81758314 C-43.25145434 436.79514524 -43.24131548 431.77302171 -43.22698963 426.75059402 C-43.21586875 421.32790022 -43.22782611 415.90525011 -43.23683167 410.4825592 C-43.25075821 399.86620511 -43.24321235 389.24997004 -43.22815608 378.63362163 C-43.21128897 366.26946183 -43.21450711 353.90533162 -43.21825016 341.54116387 C-43.22412761 319.48046215 -43.20996133 297.41981753 -43.18530273 275.35913086 C-43.16137941 253.95383559 -43.15423194 232.54861677 -43.16479492 211.14331055 C-43.1762045 187.83123895 -43.17813391 164.51920262 -43.16369683 141.20713145 C-43.16217099 138.72133005 -43.16065064 136.23552865 -43.15913582 133.74972725 C-43.158378 132.52667858 -43.15762019 131.3036299 -43.15683941 130.04351915 C-43.15209713 121.4254454 -43.15394761 112.8073874 -43.15820122 104.18931389 C-43.1631281 93.68731284 -43.15714237 83.18538391 -43.13730692 72.68339937 C-43.12743626 67.32535025 -43.12232746 61.96741091 -43.13019943 56.60935593 C-43.13725925 51.7037293 -43.13044441 46.79832416 -43.1125958 41.89272673 C-43.10855331 40.11899182 -43.10954784 38.34523671 -43.11611467 36.57150935 C-43.15434009 25.27943623 -42.96100493 15.42131194 -35.6015625 6.17578125 C-25.94943532 -3.35619497 -12.31502877 -5.73768386 0 0 Z " fill="#36575F" transform="translate(306.71875,287.68359375)"/>
<path d="M0 0 C1.89119303 -0.00761181 1.89119303 -0.00761181 3.82059199 -0.0153774 C5.22762585 -0.0159791 6.63465976 -0.01647817 8.04169369 -0.01688576 C9.53033483 -0.02090003 11.01897487 -0.02533819 12.5076136 -0.03016531 C16.60889835 -0.04214086 20.71017134 -0.04778155 24.81147015 -0.05234647 C29.23088074 -0.05829892 33.65027722 -0.06990972 38.06967831 -0.08063698 C48.7485788 -0.1051702 59.42748397 -0.11979001 70.10640398 -0.13269705 C73.12231446 -0.13640847 76.13822449 -0.14038175 79.15413451 -0.14444971 C97.87954866 -0.16968704 116.60496353 -0.19174181 135.33039093 -0.20417786 C139.66872377 -0.2071076 144.00705658 -0.21006925 148.34538937 -0.21308327 C149.4236723 -0.21382932 150.50195524 -0.21457537 151.61291342 -0.21534403 C169.07857134 -0.22799632 186.54412742 -0.26121703 204.00973774 -0.3028851 C221.93865843 -0.34530804 239.86752701 -0.36887336 257.79649776 -0.37409842 C267.86399221 -0.37751226 277.93132756 -0.38926414 287.99877262 -0.42220116 C296.57332883 -0.45020781 305.14769332 -0.46119831 313.72229172 -0.4500057 C318.09625519 -0.44482051 322.46981724 -0.44769651 326.84372234 -0.47247124 C330.85175083 -0.49498372 334.85909002 -0.49420879 338.86713075 -0.47526737 C340.31338311 -0.47247011 341.7596824 -0.47805075 343.20585937 -0.4930803 C354.39047897 -0.60216561 363.14653857 1.58008584 371.46623898 9.36748314 C377.39596488 16.18516292 378.72914655 22.90184751 378.35295773 31.80498314 C377.45742013 40.38805696 374.56297372 46.38764369 368.00530148 52.13701439 C365.43557365 53.78027487 362.83656281 55.01561284 360.00530148 56.13701439 C358.89787968 56.64855317 358.89787968 56.64855317 357.76808572 57.17042607 C354.61401606 58.27390959 352.14738094 58.38881969 348.80856609 58.39148998 C347.55362213 58.39732218 346.29867816 58.40315437 345.0057056 58.4091633 C343.61565747 58.4055302 342.22560984 58.40170583 340.83556271 58.3977108 C339.35685637 58.40073128 337.87815159 58.40462025 336.39944959 58.40930337 C332.33492999 58.41960571 328.27049837 58.41739585 324.20597148 58.41312277 C319.82274179 58.41065955 315.4395335 58.41966477 311.05631161 58.42716026 C302.46798997 58.43992131 293.87969958 58.44169914 285.29137006 58.43936 C278.31025033 58.43757797 271.3291401 58.43932402 264.34802151 58.44358444 C263.35494278 58.44417963 262.36186405 58.44477482 261.33869202 58.44538805 C259.32130827 58.44659978 257.30392452 58.44781392 255.28654078 58.44903042 C236.35883394 58.45991173 217.43114491 58.45774089 198.50343707 58.45164558 C181.18922145 58.44647795 163.87506211 58.45772675 146.56085762 58.47674379 C128.78442547 58.49611885 111.00801994 58.50437865 93.23157716 58.50062054 C83.2508266 58.49870773 73.27012393 58.5012037 63.28938198 58.51533508 C54.7909935 58.52724574 46.29268237 58.52865743 37.79429284 58.51654492 C33.45902239 58.51065354 29.12389344 58.50956388 24.78863239 58.52154732 C20.81726271 58.53239717 16.84615283 58.52931349 12.87479535 58.51528563 C11.44074315 58.51263619 10.00667065 58.51501305 8.57263836 58.5230215 C-2.97946147 58.58303912 -12.44139142 57.44754203 -20.99469852 49.13701439 C-27.69797774 40.61330148 -28.98252368 31.7957698 -27.99469852 21.13701439 C-27.10176903 18.07692088 -25.83529349 15.72478157 -23.99469852 13.13701439 C-23.29344852 12.10576439 -22.59219852 11.07451439 -21.86969852 10.01201439 C-16.26312728 3.61701906 -8.3528155 0.01780921 0 0 Z " fill="#385961" transform="translate(382.9946985244751,674.8629856109619)"/>
<path d="M0 0 C1.49326561 -0.00576919 2.98652411 -0.01371565 4.47976792 -0.02363622 C8.56157215 -0.04442412 12.64278858 -0.03423143 16.72459435 -0.01870513 C21.13509022 -0.00736212 25.54548712 -0.02486905 29.95596313 -0.03860474 C38.588116 -0.06081137 47.22005121 -0.05604712 55.85221253 -0.04154153 C62.87038684 -0.03023769 69.88850026 -0.02872335 76.90668106 -0.03416061 C77.90654226 -0.03492678 78.90640345 -0.03569294 79.93656347 -0.03648233 C81.96795337 -0.038081 83.99934326 -0.03970207 86.03073312 -0.04134528 C105.06971016 -0.05559563 124.10856674 -0.03922203 143.14752401 -0.01234345 C159.47049018 0.00998781 175.79327851 0.00611999 192.11624146 -0.01693726 C211.08518943 -0.0437197 230.05403183 -0.05421518 249.02299607 -0.03887594 C251.04741611 -0.03728325 253.07183618 -0.03571139 255.09625626 -0.03416061 C256.09222575 -0.03338924 257.08819524 -0.03261786 258.11434563 -0.03182311 C265.12000704 -0.02751293 272.12560128 -0.03477808 279.13125229 -0.04655838 C287.67487487 -0.06060938 296.21826787 -0.05672914 304.76186429 -0.03015466 C309.11787201 -0.01705034 313.47349756 -0.01180588 317.82950211 -0.02840042 C321.82321018 -0.04338414 325.81618463 -0.03497464 329.80982687 -0.00851266 C331.24848641 -0.00296301 332.68720893 -0.00568846 334.12582742 -0.0178916 C344.98842078 -0.10290963 354.76881986 1.44340992 363.13528442 8.88491821 C369.5556934 16.23149866 370.88272015 23.29317686 370.57278442 32.97866821 C369.51671827 41.80436392 365.22106873 47.17818867 358.70950317 52.94351196 C350.63644159 58.24796669 342.83578153 58.06726811 333.45965576 58.02932739 C331.96257107 58.0342203 330.46549015 58.04041195 328.96841562 58.04778528 C324.86696818 58.06415719 320.76571331 58.06187251 316.66424465 58.05641031 C312.23604421 58.05373674 307.80789471 58.06827803 303.37971497 58.08050537 C294.70924512 58.10154737 286.03884217 58.10610094 277.36834981 58.10431749 C270.32008602 58.1030093 263.27184308 58.10681691 256.22358322 58.11424255 C254.19249451 58.11634177 252.1614058 58.11843937 250.13031709 58.12053537 C249.11935493 58.1215789 248.10839277 58.12262243 247.06679539 58.12369758 C227.95209757 58.14259482 208.83743814 58.14155127 189.72273485 58.13472825 C172.24121804 58.12915256 154.75984777 58.14998026 137.27836521 58.18308872 C119.32215398 58.21683198 101.36601294 58.2319933 83.40976942 58.22737169 C73.33118639 58.22512773 63.25273882 58.23035963 53.17418289 58.25526428 C44.59424103 58.27628553 36.01450891 58.27986114 27.43455841 58.26096469 C23.05854766 58.25181214 18.6829279 58.250649 14.30694771 58.27132034 C10.29724816 58.29005171 6.28825923 58.28550321 2.27858655 58.26277453 C0.83181913 58.25859419 -0.61500301 58.26276982 -2.06171255 58.27637047 C-12.1955292 58.3651152 -19.53589922 56.98691726 -27.48580933 50.49429321 C-34.28514223 42.59829371 -36.48168378 35.92452909 -36.13815308 25.48648071 C-35.34009175 17.1638412 -31.29102061 10.9694218 -24.86471558 5.63491821 C-16.84525649 0.2747448 -9.41357694 -0.07958106 0 0 Z " fill="#365760" transform="translate(390.8647155761719,503.3650817871094)"/>
<path d="M0 0 C6.880273 6.37816235 9.08562129 11.99633884 9.55859375 21.2421875 C8.11382018 28.37512556 2.60056985 33.86155044 -2.3125 38.9375 C-2.91497559 39.57155762 -3.51745117 40.20561523 -4.13818359 40.85888672 C-5.42336569 42.21127649 -6.71119141 43.56115826 -8.00146484 44.90869141 C-11.39655737 48.46138657 -14.75874817 52.04500509 -18.125 55.625 C-18.80071045 56.34212158 -19.4764209 57.05924316 -20.17260742 57.7980957 C-24.66304948 62.56602782 -29.12279234 67.36061763 -33.55639648 72.18139648 C-37.4112773 76.37097274 -41.29684042 80.5311546 -45.1875 84.6875 C-49.14915065 88.91978902 -53.07767276 93.17410518 -56.9375 97.5 C-59.96858301 100.8952612 -63.10475761 104.12888844 -66.34765625 107.3203125 C-67.99379791 108.99369527 -69.53158393 110.72093045 -71.0625 112.5 C-75.08678114 117.16491782 -79.29762597 121.6492736 -83.52026367 126.1340332 C-86.48971522 129.29150937 -89.42975334 132.46434702 -92.29296875 135.71875 C-103.4494914 148.34699899 -103.4494914 148.34699899 -111.72265625 149.3203125 C-119.67017544 149.64120829 -124.71842082 147.50384359 -130.625 142.125 C-134.80523829 138.25781921 -138.65283505 134.16842654 -142.4675293 129.9440918 C-148.42701815 123.41615085 -154.69175429 117.18938595 -160.9375 110.9375 C-161.49374054 110.37885254 -162.04998108 109.82020508 -162.62307739 109.24462891 C-164.23411812 107.62762235 -165.84882327 106.01437207 -167.46484375 104.40234375 C-167.94782928 103.91736923 -168.43081482 103.43239471 -168.92843628 102.932724 C-171.80826641 100.07233053 -174.83321988 97.53225732 -178 95 C-181.83390365 89.6041356 -183.87135276 84.01761617 -183.4765625 77.37890625 C-181.94432766 69.73029133 -176.06397548 64.46057838 -170 60 C-166.60642405 57.86383324 -163.73338234 57.642734 -159.75 57.5625 C-158.13351562 57.50255859 -158.13351562 57.50255859 -156.484375 57.44140625 C-148.73303257 58.6840542 -143.17632036 64.39229933 -137.875 69.83203125 C-137.24263428 70.46864182 -136.61026855 71.10525238 -135.95874023 71.76115417 C-133.96525841 73.77126173 -131.98253816 75.79160414 -130 77.8125 C-128.64002446 79.18754317 -127.27935348 80.56189889 -125.91796875 81.93554688 C-122.60389317 85.28247769 -119.29941862 88.63862196 -116 92 C-112.17696001 90.2304643 -110.06026672 88.10995948 -107.25 84.9375 C-106.27603684 83.85039886 -105.30069165 82.76453487 -104.32421875 81.6796875 C-103.79489746 81.09026367 -103.26557617 80.50083984 -102.72021484 79.89355469 C-99.55006871 76.40396437 -96.30175955 72.9878046 -93.0625 69.5625 C-88.15362779 64.36374518 -83.27188014 59.14309575 -78.4375 53.875 C-74.8998214 50.02006173 -71.2980514 46.25746387 -67.5625 42.59375 C-65.85622166 40.85334609 -64.27358373 39.03793102 -62.6875 37.1875 C-59.92381971 33.97666245 -57.01380404 30.97732835 -54 28 C-50.41572369 24.45897287 -47.05316298 20.82752084 -43.78125 17 C-41.039713 13.92178302 -38.08068632 11.07082486 -35.14453125 8.1796875 C-32.70708857 5.70228674 -30.47302198 3.1113693 -28.2890625 0.41015625 C-21.55883228 -6.95230772 -7.43822645 -5.51321961 0 0 Z " fill="#385861" transform="translate(772,253)"/>
<path d="M0 0 C1.25461533 -0.0071553 2.50923065 -0.01431061 3.80186462 -0.02168274 C5.18983435 -0.02452282 6.57780434 -0.02723457 7.96577454 -0.02983093 C9.42957723 -0.03609847 10.89337835 -0.04274553 12.35717773 -0.04974365 C17.16200153 -0.07075353 21.96682553 -0.0811438 26.77168274 -0.09111023 C28.42823109 -0.09515906 30.08477927 -0.09927602 31.74132729 -0.10346031 C39.52558163 -0.12250597 47.30982654 -0.13673779 55.0940997 -0.14507228 C64.06779138 -0.1548399 73.04123609 -0.18114952 82.01484078 -0.22157317 C88.95853114 -0.25177485 95.90215086 -0.26654503 102.8459056 -0.26985329 C106.98947068 -0.27219933 111.13277172 -0.28110125 115.2762661 -0.30631447 C119.17762287 -0.32967113 123.07854317 -0.33379823 126.97995186 -0.32355309 C128.40652802 -0.32305944 129.83312623 -0.32932923 131.25963593 -0.34310913 C139.3676765 -0.41700717 145.81233093 -0.02532415 152.88496399 4.14717102 C153.69449524 4.61638977 154.50402649 5.08560852 155.33808899 5.56904602 C160.98108284 9.73995452 164.65438862 14.45544492 166.88496399 21.14717102 C167.58284917 32.58175134 166.80417744 40.09335181 159.62324524 49.28779602 C154.69535893 54.55897328 148.00458239 57.80178298 140.81638718 58.40443993 C139.7213802 58.40779161 138.62637321 58.4111433 137.4981842 58.41459656 C136.23385056 58.42312653 134.96951691 58.43165649 133.66687012 58.44044495 C132.27830493 58.43974602 130.88973984 58.43882301 129.50117493 58.43769836 C128.02884583 58.44368728 126.55651987 58.45049367 125.084198 58.45805359 C121.0943228 58.47568594 117.10453346 58.48040786 113.11462307 58.48168516 C110.61827394 58.48310913 108.12194646 58.48738342 105.62560272 58.4926796 C96.90621562 58.51117222 88.18688958 58.51935136 79.46748352 58.51777649 C71.35701041 58.51657598 63.24680379 58.53766241 55.13639808 58.56926382 C48.15952045 58.59547366 41.1827296 58.60614178 34.20580316 58.60486567 C30.04492583 58.60435733 25.88428535 58.60996919 21.72345734 58.63122177 C17.80645642 58.65068328 13.8899163 58.65067517 9.97289848 58.63618851 C8.5419109 58.63410892 7.11089387 58.63875028 5.67995644 58.65090942 C-4.06662302 58.72831101 -11.51027828 57.58645418 -19.86503601 52.45967102 C-26.74054117 45.3931796 -30.09080116 38.1407574 -30.49003601 28.27217102 C-30.30737614 20.13365881 -27.90495762 14.75628014 -22.36503601 8.83467102 C-15.73350958 2.62380112 -9.01311718 0.03531195 0 0 Z " fill="#365860" transform="translate(385.1150360107422,328.8528289794922)"/>
<path d="M0 0 C0.33 0.99 0.66 1.98 1 3 C-1.64 5.64 -4.28 8.28 -7 11 C-7.66 10.67 -8.32 10.34 -9 10 C-6.03 6.7 -3.06 3.4 0 0 Z " fill="#DADEDA" transform="translate(758,303)"/>
<path d="M0 0 C0.66 0.33 1.32 0.66 2 1 C0.02 3.31 -1.96 5.62 -4 8 C-4.99 7.67 -5.98 7.34 -7 7 C-4.69 4.69 -2.38 2.38 0 0 Z " fill="#41656D" transform="translate(600,314)"/>
</svg>
